HIERARCHY
ROOT newVegas:Hips
{
	OFFSET 0.000000 96.479958 0.000000
	CHANNELS 6 Xposition Yposition Zposition Xrotation Yrotation Zrotation
	JOINT newVegas:Pelvis
	{
		OFFSET 0.000000 0.000000 0.000000
		CHANNELS 3 Xrotation Yrotation Zrotation
		JOINT newVegas:LeftUpLeg
		{
			OFFSET 18.735201 -5.666702 -4.541200
			CHANNELS 3 Xrotation Yrotation Zrotation
			JOINT newVegas:LeftLeg
			{
				OFFSET -0.021200 -31.938179 0.493100
				CHANNELS 3 Xrotation Yrotation Zrotation
				JOINT newVegas:LeftFoot
				{
					OFFSET 0.021200 -31.938179 -4.336299
					CHANNELS 3 Xrotation Yrotation Zrotation
					JOINT newVegas:LeftToeBase
					{
						OFFSET 0.943001 -26.722000 15.023500
						CHANNELS 3 Xrotation Yrotation Zrotation
						End Site
						{
							OFFSET 0.000000 30.670183 0.000000
						}
					}
				}
				JOINT newVegas:Left_PantLeg
				{
					OFFSET 0.663870 -9.044666 -1.108900
					CHANNELS 3 Xrotation Yrotation Zrotation
					End Site
					{
						OFFSET 1.415995 20.635357 0.000000
					}
				}
			}
		}
		JOINT newVegas:RightUpLeg
		{
			OFFSET -18.735201 -5.666702 -4.541200
			CHANNELS 3 Xrotation Yrotation Zrotation
			JOINT newVegas:RightLeg
			{
				OFFSET 0.018946 -31.938133 0.493100
				CHANNELS 3 Xrotation Yrotation Zrotation
				JOINT newVegas:RightFoot
				{
					OFFSET -0.018946 -31.938126 -4.336299
					CHANNELS 3 Xrotation Yrotation Zrotation
					JOINT newVegas:RightToeBase
					{
						OFFSET -0.943001 -26.722004 15.023500
						CHANNELS 3 Xrotation Yrotation Zrotation
						End Site
						{
							OFFSET 0.000000 30.670187 0.000000
						}
					}
				}
				JOINT newVegas:Right_PantLeg
				{
					OFFSET -0.661674 -9.044716 -1.108900
					CHANNELS 3 Xrotation Yrotation Zrotation
					End Site
					{
						OFFSET -1.415958 20.635269 0.000000
					}
				}
			}
		}
	}
	JOINT newVegas:Spine
	{
		OFFSET 0.000000 10.199997 -0.299500
		CHANNELS 3 Xrotation Yrotation Zrotation
		JOINT newVegas:Spine1
		{
			OFFSET 0.000000 11.900002 -1.516600
			CHANNELS 3 Xrotation Yrotation Zrotation
			JOINT newVegas:Spine2
			{
				OFFSET 0.000000 13.600006 -2.842500
				CHANNELS 3 Xrotation Yrotation Zrotation
				JOINT newVegas:Neck
				{
					OFFSET 0.000000 9.624100 -2.890100
					CHANNELS 3 Xrotation Yrotation Zrotation
					JOINT newVegas:Head
					{
						OFFSET 0.000000 14.068802 -1.351900
						CHANNELS 3 Xrotation Yrotation Zrotation
						JOINT newVegas:Hair_Back
						{
							OFFSET 0.000000 3.231903 -17.524799
							CHANNELS 3 Xrotation Yrotation Zrotation
							End Site
							{
								OFFSET 0.000000 19.849884 0.000000
							}
						}
						JOINT newVegas:Hair_Front
						{
							OFFSET 0.000000 31.260406 4.573800
							CHANNELS 3 Xrotation Yrotation Zrotation
							JOINT newVegas:Hair_Front1
							{
								OFFSET 0.000000 2.284103 11.993300
								CHANNELS 3 Xrotation Yrotation Zrotation
								JOINT newVegas:Hair_Front2
								{
									OFFSET 0.000000 2.284103 11.993300
									CHANNELS 3 Xrotation Yrotation Zrotation
									End Site
									{
										OFFSET 0.000000 12.208862 0.000000
									}
								}
							}
						}
						JOINT newVegas:Jowel
						{
							OFFSET 0.000000 -7.458206 6.864100
							CHANNELS 3 Xrotation Yrotation Zrotation
							End Site
							{
								OFFSET 0.000000 19.849884 0.000000
							}
						}
					}
				}
				JOINT newVegas:LeftShoulder
				{
					OFFSET 15.263000 10.923401 -0.547700
					CHANNELS 3 Xrotation Yrotation Zrotation
					JOINT newVegas:LeftArm
					{
						OFFSET 25.438599 -2.830597 -13.032500
						CHANNELS 3 Xrotation Yrotation Zrotation
						JOINT newVegas:LeftForeArm
						{
							OFFSET 29.960503 0.000000 0.000000
							CHANNELS 3 Xrotation Yrotation Zrotation
							JOINT newVegas:LeftHand
							{
								OFFSET 27.849251 0.000000 0.000000
								CHANNELS 3 Xrotation Yrotation Zrotation
								JOINT newVegas:LeftHandThumb1
								{
									OFFSET 4.487587 -3.305161 6.305391
									CHANNELS 3 Xrotation Yrotation Zrotation
									JOINT newVegas:LeftHandThumb2
									{
										OFFSET 5.480453 -3.164139 3.164143
										CHANNELS 3 Xrotation Yrotation Zrotation
										JOINT newVegas:LeftHandThumb3
										{
											OFFSET 5.159721 -2.978973 2.978967
											CHANNELS 3 Xrotation Yrotation Zrotation
											End Site
											{
												OFFSET 2.494507 5.926697 1.738678
											}
										}
									}
								}
								JOINT newVegas:LeftHandIndex1
								{
									OFFSET 18.578728 -0.527832 5.208049
									CHANNELS 3 Xrotation Yrotation Zrotation
									JOINT newVegas:LeftHandIndex2
									{
										OFFSET 3.192009 0.000000 0.000000
										CHANNELS 3 Xrotation Yrotation Zrotation
										JOINT newVegas:LeftHandIndex3
										{
											OFFSET 3.835129 0.000000 0.000000
											CHANNELS 3 Xrotation Yrotation Zrotation
											End Site
											{
												OFFSET -0.034599 3.816971 0.371180
											}
										}
									}
								}
								JOINT newVegas:LeftHandMiddle1
								{
									OFFSET 18.476105 0.000000 0.000000
									CHANNELS 3 Xrotation Yrotation Zrotation
									JOINT newVegas:LeftHandMiddle2
									{
										OFFSET 3.324875 0.000000 0.000000
										CHANNELS 3 Xrotation Yrotation Zrotation
										JOINT newVegas:LeftHandMiddle3
										{
											OFFSET 4.596550 0.000000 0.000000
											CHANNELS 3 Xrotation Yrotation Zrotation
											End Site
											{
												OFFSET 0.057701 4.578827 0.399218
											}
										}
									}
								}
								JOINT newVegas:LeftHandRing1
								{
									OFFSET 17.732719 0.121887 -4.201567
									CHANNELS 3 Xrotation Yrotation Zrotation
									JOINT newVegas:LeftHandRing2
									{
										OFFSET 2.733170 0.000000 0.000000
										CHANNELS 3 Xrotation Yrotation Zrotation
										JOINT newVegas:LeftHandRing3
										{
											OFFSET 3.178268 0.000000 0.000000
											CHANNELS 3 Xrotation Yrotation Zrotation
											End Site
											{
												OFFSET 0.119102 3.170624 0.185394
											}
										}
									}
								}
								JOINT newVegas:LeftHandPinky1
								{
									OFFSET 15.989624 -0.606689 -7.535461
									CHANNELS 3 Xrotation Yrotation Zrotation
									JOINT newVegas:LeftHandPinky2
									{
										OFFSET 2.538986 0.000000 0.000000
										CHANNELS 3 Xrotation Yrotation Zrotation
										JOINT newVegas:LeftHandPinky3
										{
											OFFSET 2.593102 0.000000 0.000000
											CHANNELS 3 Xrotation Yrotation Zrotation
											End Site
											{
												OFFSET -0.150902 2.584198 0.152708
											}
										}
									}
								}
							}
							JOINT newVegas:Left_Sleeve
							{
								OFFSET 0.267448 -0.649796 0.577675
								CHANNELS 3 Xrotation Yrotation Zrotation
								End Site
								{
									OFFSET 0.000000 15.991241 0.000000
								}
							}
							JOINT newVegas:Left_CapeC
							{
								OFFSET 15.715958 -8.608795 -6.935905
								CHANNELS 3 Xrotation Yrotation Zrotation
								JOINT newVegas:Left_CapeC1
								{
									OFFSET 0.000000 -8.688499 0.000000
									CHANNELS 3 Xrotation Yrotation Zrotation
									End Site
									{
										OFFSET 0.000000 8.688499 0.000000
									}
								}
							}
						}
						JOINT newVegas:Left_CapeB
						{
							OFFSET 26.118385 -8.608795 -7.079235
							CHANNELS 3 Xrotation Yrotation Zrotation
							JOINT newVegas:Left_CapeB1
							{
								OFFSET 0.000000 -8.688499 0.000000
								CHANNELS 3 Xrotation Yrotation Zrotation
								End Site
								{
									OFFSET 0.000000 8.688499 0.000000
								}
							}
						}
						JOINT newVegas:Left_CapeA
						{
							OFFSET 5.115639 -8.608795 -10.395809
							CHANNELS 3 Xrotation Yrotation Zrotation
							JOINT newVegas:Left_CapeA1
							{
								OFFSET 0.000000 -8.688499 0.000000
								CHANNELS 3 Xrotation Yrotation Zrotation
								End Site
								{
									OFFSET 0.000000 8.688499 0.000000
								}
							}
						}
					}
				}
				JOINT newVegas:RightShoulder
				{
					OFFSET -15.263000 10.923401 -0.547700
					CHANNELS 3 Xrotation Yrotation Zrotation
					JOINT newVegas:RightArm
					{
						OFFSET -25.438599 -2.830597 -13.032500
						CHANNELS 3 Xrotation Yrotation Zrotation
						JOINT newVegas:RightForeArm
						{
							OFFSET -29.960503 0.000000 0.000000
							CHANNELS 3 Xrotation Yrotation Zrotation
							JOINT newVegas:RightHand
							{
								OFFSET -27.849251 0.000000 0.000000
								CHANNELS 3 Xrotation Yrotation Zrotation
								JOINT newVegas:RightHandThumb1
								{
									OFFSET -4.487587 -3.305161 6.305391
									CHANNELS 3 Xrotation Yrotation Zrotation
									JOINT newVegas:RightHandThumb2
									{
										OFFSET -5.480453 -3.164139 3.164143
										CHANNELS 3 Xrotation Yrotation Zrotation
										JOINT newVegas:RightHandThumb3
										{
											OFFSET -5.159721 -2.978973 2.978967
											CHANNELS 3 Xrotation Yrotation Zrotation
											End Site
											{
												OFFSET -2.494507 5.926697 1.738678
											}
										}
									}
								}
								JOINT newVegas:RightHandIndex1
								{
									OFFSET -18.578728 -0.527832 5.208049
									CHANNELS 3 Xrotation Yrotation Zrotation
									JOINT newVegas:RightHandIndex2
									{
										OFFSET -3.192009 0.000000 0.000000
										CHANNELS 3 Xrotation Yrotation Zrotation
										JOINT newVegas:RightHandIndex3
										{
											OFFSET -3.835129 0.000000 0.000000
											CHANNELS 3 Xrotation Yrotation Zrotation
											End Site
											{
												OFFSET 0.034599 3.816971 0.371180
											}
										}
									}
								}
								JOINT newVegas:RightHandMiddle1
								{
									OFFSET -18.476105 0.000000 0.000000
									CHANNELS 3 Xrotation Yrotation Zrotation
									JOINT newVegas:RightHandMiddle2
									{
										OFFSET -3.324875 0.000000 0.000000
										CHANNELS 3 Xrotation Yrotation Zrotation
										JOINT newVegas:RightHandMiddle3
										{
											OFFSET -4.596550 0.000000 0.000000
											CHANNELS 3 Xrotation Yrotation Zrotation
											End Site
											{
												OFFSET -0.057701 4.578827 0.399218
											}
										}
									}
								}
								JOINT newVegas:RightHandRing1
								{
									OFFSET -17.732719 0.121887 -4.201567
									CHANNELS 3 Xrotation Yrotation Zrotation
									JOINT newVegas:RightHandRing2
									{
										OFFSET -2.733170 0.000000 0.000000
										CHANNELS 3 Xrotation Yrotation Zrotation
										JOINT newVegas:RightHandRing3
										{
											OFFSET -3.178268 0.000000 0.000000
											CHANNELS 3 Xrotation Yrotation Zrotation
											End Site
											{
												OFFSET -0.119102 3.170624 0.185394
											}
										}
									}
								}
								JOINT newVegas:RightHandPinky1
								{
									OFFSET -15.989624 -0.606689 -7.535461
									CHANNELS 3 Xrotation Yrotation Zrotation
									JOINT newVegas:RightHandPinky2
									{
										OFFSET -2.538986 0.000000 0.000000
										CHANNELS 3 Xrotation Yrotation Zrotation
										JOINT newVegas:RightHandPinky3
										{
											OFFSET -2.593102 0.000000 0.000000
											CHANNELS 3 Xrotation Yrotation Zrotation
											End Site
											{
												OFFSET 0.150902 2.584198 0.152708
											}
										}
									}
								}
							}
							JOINT newVegas:Right_CapeC
							{
								OFFSET -15.715958 -8.608795 -6.935905
								CHANNELS 3 Xrotation Yrotation Zrotation
								JOINT newVegas:Right_CapeC1
								{
									OFFSET 0.000000 -8.688499 0.000000
									CHANNELS 3 Xrotation Yrotation Zrotation
									End Site
									{
										OFFSET 0.000000 8.688499 0.000000
									}
								}
							}
							JOINT newVegas:Right_Sleeve
							{
								OFFSET -0.267448 -0.649994 0.577675
								CHANNELS 3 Xrotation Yrotation Zrotation
								End Site
								{
									OFFSET 0.000000 15.991302 0.000000
								}
							}
						}
						JOINT newVegas:Right_CapeA
						{
							OFFSET -5.115540 -8.608795 -10.395824
							CHANNELS 3 Xrotation Yrotation Zrotation
							JOINT newVegas:Right_CapeA1
							{
								OFFSET 0.000000 -8.688499 0.000000
								CHANNELS 3 Xrotation Yrotation Zrotation
								End Site
								{
									OFFSET 0.000000 8.688499 0.000000
								}
							}
						}
						JOINT newVegas:Right_CapeB
						{
							OFFSET -26.118187 -8.608795 -7.079266
							CHANNELS 3 Xrotation Yrotation Zrotation
							JOINT newVegas:Right_CapeB1
							{
								OFFSET 0.000000 -8.688499 0.000000
								CHANNELS 3 Xrotation Yrotation Zrotation
								End Site
								{
									OFFSET 0.000000 8.688499 0.000000
								}
							}
						}
					}
				}
				JOINT newVegas:Left_Collar
				{
					OFFSET 18.625099 8.655502 8.828100
					CHANNELS 3 Xrotation Yrotation Zrotation
					JOINT newVegas:Left_Collar1
					{
						OFFSET 14.783401 10.540405 -1.259500
						CHANNELS 3 Xrotation Yrotation Zrotation
						End Site
						{
							OFFSET 0.000000 18.199875 0.000000
						}
					}
				}
				JOINT newVegas:Collar_Back
				{
					OFFSET 0.000000 15.630707 -20.132601
					CHANNELS 3 Xrotation Yrotation Zrotation
					End Site
					{
						OFFSET 0.000000 22.523010 0.000000
					}
				}
				JOINT newVegas:Left_Peck
				{
					OFFSET 17.239599 -5.132599 25.482599
					CHANNELS 3 Xrotation Yrotation Zrotation
					End Site
					{
						OFFSET 0.000000 22.523010 0.000000
					}
				}
				JOINT newVegas:Right_Peck
				{
					OFFSET -17.239599 -5.132202 25.482599
					CHANNELS 3 Xrotation Yrotation Zrotation
					End Site
					{
						OFFSET 0.000000 22.523010 0.000000
					}
				}
				JOINT newVegas:Right_Collar
				{
					OFFSET -18.625099 8.655792 8.828100
					CHANNELS 3 Xrotation Yrotation Zrotation
					JOINT newVegas:Right_Collar1
					{
						OFFSET -14.783401 10.539993 -1.259500
						CHANNELS 3 Xrotation Yrotation Zrotation
						End Site
						{
							OFFSET 0.000000 18.199631 0.000000
						}
					}
				}
			}
		}
		JOINT newVegas:Belly
		{
			OFFSET 0.000000 -6.540398 9.014299
			CHANNELS 3 Xrotation Yrotation Zrotation
			End Site
			{
				OFFSET 0.000000 11.566666 0.000000
			}
		}
	}
	JOINT newVegas:ElvisFacialAnim_Joint
	{
		OFFSET 1.000000 -95.330101 -8.825800
		CHANNELS 3 Xrotation Yrotation Zrotation
		End Site
		{
			OFFSET 0.000000 35.315800 0.000000
		}
	}
}
MOTION
Frames: 4
Frame Time: 0.033333
0.352898 94.824783 7.457093 -4.776677 -27.163133 -4.954515 0.000001 -0.000001 0.000000 -4.253331 12.923025 9.677232 24.805423 9.452271 4.141740 -11.149888 18.587303 -12.768501 0.000000 -0.000001 0.000000 -0.000000 0.000000 -0.000000 -5.685577 -11.551015 -4.016991 14.600395 -5.062617 0.265255 -4.870017 17.276706 4.861587 0.000000 0.000003 -0.000000 0.000001 -0.000002 -0.000001 1.824261 -2.858895 4.951046 -1.874119 -8.620034 5.596745 -2.004665 -8.602440 5.557072 4.106815 1.448484 -1.086943 4.106816 1.448487 -1.086966 0.000000 0.000001 0.000000 4.106809 1.448471 -1.086944 4.106892 1.448513 -1.086956 -0.000001 0.000001 -0.000001 0.000000 0.000001 0.000001 1.208648 -41.134340 -5.318927 -59.305645 -74.520608 -90.008923 -0.000010 -62.978374 -0.000005 -1.831799 -16.140611 -15.541549 -15.368658 0.946729 -37.870988 -7.003286 3.862377 64.839198 0.000001 0.000000 -0.000003 2.613416 -6.990276 0.448307 0.348473 1.992162 -19.842027 0.000001 -0.000001 -0.000000 -1.287144 -3.090901 -12.858998 0.440351 2.230236 -22.335839 0.000001 -0.000001 0.000000 -0.203892 1.920952 -13.445760 0.493041 2.354318 -23.653213 0.000004 0.000001 0.000000 -3.179470 1.705180 -17.543389 0.368796 2.047603 -20.419032 -0.000002 -0.000002 -0.000001 -0.000002 0.000000 -0.000001 -0.000002 0.000000 -0.000001 -0.000003 0.000001 -0.000002 0.000000 0.000001 -0.000002 -0.000000 0.000002 -0.000002 0.000000 0.000001 -0.000002 -0.000000 0.000001 -0.000002 3.343773 14.668077 2.813172 2.074371 33.275008 62.287733 -0.001544 94.990009 0.001493 -83.092946 -1.256940 33.861004 -20.448350 -6.961880 21.705878 1.641489 -14.133121 -17.076410 -0.000002 -0.000002 -0.000001 -10.068010 9.592974 38.098764 0.946255 -2.815938 37.142517 -0.000000 -0.000001 -0.000000 -9.105474 6.776108 41.207873 0.393240 -1.874726 23.691129 0.000001 -0.000001 0.000000 -2.514558 -1.416965 43.436356 0.416061 -1.925842 24.378680 -0.000001 0.000002 -0.000001 -9.458641 -5.183346 46.423491 0.000003 -0.000018 0.000010 -0.000000 0.000003 0.000001 0.000002 -0.000001 0.000000 0.000001 -0.000001 0.000000 0.000002 -0.000001 0.000000 0.000000 -0.000002 -0.000003 -0.000000 -0.000001 -0.000001 0.000000 -0.000002 -0.000003 -0.000000 -0.000001 -0.000001 -0.000000 0.000002 0.000001 -0.000000 0.000002 0.000001 -0.000000 0.000002 0.000001 -0.000000 0.000002 0.000001 -0.000000 0.000002 0.000001 -0.000000 0.000002 0.000001 -0.000000 0.000002 0.000001 0.000000 0.000001 -0.000000 0.000001 -0.000001 0.000000 
0.334626 94.848030 7.401541 -4.790085 -26.996249 -5.104962 -0.000000 0.000000 0.000000 -4.416616 12.993250 9.937889 24.833642 9.450026 4.171923 -11.104500 18.317418 -12.781334 -0.000000 -0.000001 0.000000 -0.000001 0.000000 -0.000000 -5.343970 -11.483501 -3.694566 14.079098 -5.048498 0.230190 -4.553939 16.976889 4.768106 -0.000000 0.000003 -0.000000 0.000000 0.000001 -0.000000 1.841215 -2.799422 4.896511 -1.838090 -8.498779 5.530992 -1.965041 -8.482145 5.490868 3.999073 1.428591 -1.010473 3.999089 1.428596 -1.010474 0.000001 -0.000001 0.000000 3.999217 1.428563 -1.010473 3.998944 1.428652 -1.010484 -0.000001 0.000001 -0.000001 0.000001 -0.000001 0.000001 1.337169 -39.251431 -4.672031 -62.921280 -74.764767 -93.217165 -0.000007 -62.549950 0.000000 -2.524156 -16.409907 -14.605132 -15.379537 0.905193 -37.723148 -7.309552 4.282126 64.699349 0.000001 0.000000 0.000001 2.612919 -6.949599 0.439039 0.348311 1.991721 -19.837502 -0.000004 -0.000003 0.000002 -1.282886 -3.036017 -12.920966 0.439925 2.229190 -22.324688 0.000000 -0.000000 -0.000003 -0.205349 1.908830 -13.403014 0.493157 2.354574 -23.655814 -0.000000 -0.000001 0.000002 -3.147126 1.764509 -17.572781 0.368527 2.046773 -20.410784 -0.000004 -0.000005 -0.000002 -0.000002 0.000002 0.000001 -0.000002 0.000002 0.000001 -0.000003 0.000002 0.000000 -0.000001 0.000000 0.000003 0.000000 0.000000 0.000001 -0.000001 0.000000 0.000003 -0.000000 -0.000000 0.000003 3.308682 15.220291 3.256991 1.413840 34.100860 62.164161 -0.001329 94.913880 0.001249 -83.534901 -0.158736 33.425187 -20.098655 -6.785298 22.024631 1.676727 -13.954831 -17.010895 0.000001 -0.000001 0.000001 -9.851281 9.290252 38.089670 0.930610 -2.795155 36.822318 -0.000001 0.000001 0.000005 -9.065670 6.677024 41.321418 0.387001 -1.860443 23.499505 -0.000000 -0.000001 0.000002 -2.180571 -1.800956 43.645786 0.414376 -1.922143 24.328837 0.000000 0.000001 0.000001 -9.254222 -5.152883 46.759212 -0.000001 -0.000004 0.000004 0.000001 0.000003 0.000001 -0.000000 -0.000001 0.000001 -0.000000 -0.000001 0.000001 -0.000000 -0.000001 0.000000 -0.000000 -0.000001 0.000002 -0.000000 -0.000001 0.000004 -0.000000 -0.000001 0.000002 -0.000000 -0.000001 0.000004 -0.000000 -0.000001 -0.000000 -0.000000 -0.000001 -0.000000 -0.000000 -0.000001 -0.000000 -0.000000 -0.000001 -0.000000 -0.000000 -0.000001 -0.000000 -0.000000 -0.000001 -0.000000 -0.000000 -0.000001 -0.000000 0.000000 0.000001 0.000000 -0.000000 0.000000 0.000000 
0.328621 94.870163 7.338189 -4.794370 -26.697645 -5.213709 -0.000000 -0.000000 -0.000000 -4.633960 13.049724 10.181970 24.852856 9.449855 4.199499 -11.041499 17.920743 -12.760036 0.000000 0.000001 0.000000 -0.000001 -0.000000 -0.000000 -4.997235 -11.430617 -3.409179 13.609382 -5.033735 0.196884 -4.305882 16.564329 4.688382 0.000000 -0.000000 0.000000 -0.000000 0.000001 -0.000000 1.851377 -2.718356 4.843904 -1.812551 -8.335767 5.469902 -1.935901 -8.320186 5.429027 3.879701 1.410123 -0.978805 3.879705 1.410119 -0.978812 0.000000 -0.000001 -0.000001 3.879632 1.410144 -0.978805 3.879771 1.410099 -0.978801 -0.000000 -0.000002 -0.000000 0.000000 -0.000001 -0.000001 1.409890 -37.116809 -4.021000 -67.398463 -74.918378 -97.249244 -0.000014 -61.639677 -0.000019 -3.071287 -16.550426 -13.964538 -15.329386 1.027514 -37.655376 -7.643188 4.746505 64.552835 0.000000 -0.000002 -0.000007 2.625620 -6.826249 0.331610 0.348002 1.990831 -19.828475 -0.000004 -0.000001 0.000001 -1.270539 -2.923309 -13.020996 0.439564 2.228330 -22.315650 0.000002 -0.000001 -0.000002 -0.204432 1.916630 -13.430800 0.492543 2.353158 -23.640950 0.000002 0.000001 0.000004 -3.112816 1.832549 -17.634068 0.367915 2.045135 -20.393604 0.000001 -0.000005 0.000003 0.000000 -0.000000 -0.000000 0.000000 -0.000000 -0.000000 -0.000000 -0.000000 -0.000001 0.000002 -0.000001 -0.000001 0.000002 0.000000 -0.000001 0.000002 -0.000001 -0.000001 0.000001 -0.000001 -0.000001 3.313364 15.966303 3.537288 0.489317 34.874386 62.328919 -0.000546 94.861253 0.000512 -84.246135 0.963187 33.034599 -19.672084 -6.578242 22.467892 1.751892 -13.925030 -16.962126 0.000001 -0.000002 -0.000001 -9.617672 8.962882 38.083871 0.906965 -2.763356 36.334916 -0.000001 -0.000001 0.000004 -9.000933 6.538605 41.456632 0.386544 -1.859441 23.485901 0.000000 -0.000000 0.000002 -1.836557 -2.178131 43.758546 0.417789 -1.929669 24.430383 -0.000000 0.000003 -0.000003 -8.934367 -5.149273 46.905884 -0.000004 0.000009 0.000019 0.000001 0.000003 -0.000000 0.000000 0.000003 -0.000000 -0.000001 0.000001 0.000000 0.000000 0.000003 -0.000000 -0.000000 -0.000001 -0.000001 -0.000000 0.000000 -0.000001 -0.000000 -0.000001 -0.000001 -0.000000 -0.000000 -0.000001 -0.000000 -0.000003 0.000001 -0.000000 -0.000003 0.000001 -0.000000 -0.000003 0.000001 -0.000000 -0.000003 0.000001 -0.000000 -0.000003 0.000001 -0.000000 -0.000003 0.000001 -0.000000 -0.000003 0.000001 -0.000000 -0.000001 0.000000 -0.000000 -0.000000 -0.000000 
0.339435 94.892929 7.276139 -4.789178 -26.238325 -5.262046 -0.000000 -0.000001 0.000000 -4.905338 13.086498 10.411896 24.861943 9.448534 4.197812 -10.941831 17.360635 -12.717368 -0.000000 0.000000 -0.000000 0.000002 0.000000 -0.000002 -4.644725 -11.418120 -3.195652 13.214732 -5.014575 0.175726 -4.154793 16.035874 4.629608 0.000000 -0.000000 0.000000 0.000000 -0.000003 0.000000 1.846221 -2.607305 4.800572 -1.812754 -8.116322 5.416603 -1.934084 -8.101620 5.374540 3.773038 1.387144 -1.019431 3.773041 1.387132 -1.019430 0.000000 -0.000000 0.000001 3.773110 1.387135 -1.019432 3.772967 1.387154 -1.019433 -0.000000 -0.000004 0.000001 0.000000 -0.000000 0.000000 1.395396 -35.072939 -3.575417 -71.625776 -74.921260 -100.973760 0.000002 -60.439176 0.000004 -3.636640 -16.265430 -14.006090 -15.230326 1.275813 -37.648344 -8.004356 5.256608 64.400501 -0.000000 -0.000001 -0.000006 2.646123 -6.642463 0.129074 0.347465 1.989382 -19.813165 -0.000005 -0.000002 0.000001 -1.255228 -2.772626 -13.170400 0.438786 2.226427 -22.295587 -0.000001 -0.000001 -0.000001 -0.201293 1.940694 -13.508668 0.491337 2.350341 -23.611131 0.000002 0.000001 0.000001 -3.080233 1.898899 -17.716645 0.367009 2.042763 -20.368579 -0.000000 -0.000005 0.000001 -0.000001 0.000001 -0.000001 -0.000001 0.000001 -0.000001 -0.000002 0.000001 -0.000001 -0.000001 0.000001 0.000000 -0.000000 0.000000 -0.000001 -0.000001 0.000001 0.000000 -0.000001 -0.000000 0.000000 3.398987 16.718864 3.383162 -0.809343 35.574053 63.095956 -0.000002 94.787822 0.000017 -85.087963 2.322637 32.533762 -19.131433 -6.333527 23.098486 1.868113 -14.034346 -16.926479 -0.000000 -0.000001 0.000001 -9.341413 8.687944 37.862631 0.879090 -2.725103 35.752902 -0.000001 0.000001 0.000002 -8.835562 6.368928 41.379035 0.385837 -1.857767 23.463534 0.000001 0.000000 0.000001 -1.511672 -2.512949 43.691904 0.419048 -1.932411 24.467519 -0.000001 0.000002 -0.000001 -8.543781 -5.135090 46.918082 0.000003 0.000000 -0.000007 -0.000000 -0.000000 -0.000001 -0.000000 0.000001 -0.000000 -0.000000 0.000001 0.000000 -0.000000 0.000001 -0.000000 -0.000000 0.000002 -0.000000 -0.000000 0.000003 -0.000002 -0.000000 0.000002 -0.000000 0.000000 0.000002 -0.000001 0.000000 0.000001 0.000000 0.000000 0.000001 0.000000 0.000000 0.000001 0.000000 0.000000 0.000001 0.000000 0.000000 0.000001 0.000000 0.000000 0.000001 0.000000 0.000000 0.000001 0.000000 -0.000000 0.000002 0.000000 -0.000000 -0.000001 0.000000 
